<svg xmlns="http://www.w3.org/2000/svg" xmlns:xlink="http://www.w3.org/1999/xlink" viewBox="0 0 1559.6 718.4"><defs><style>.cls-1{fill:#fff;}.cls-2{fill:#ffff09;}.cls-3{fill:url(#linear-gradient);}.cls-4{fill:url(#linear-gradient-2);}.cls-5{fill:url(#linear-gradient-3);}.cls-6{fill:url(#linear-gradient-4);}.cls-7{fill:url(#linear-gradient-5);}.cls-8{fill:url(#linear-gradient-6);}.cls-9{fill:#0e7dc1;}</style><linearGradient id="linear-gradient" x1="219.86" y1="321.79" x2="95" y2="230.98" gradientTransform="matrix(1, 0, 0, -1, 0, 720.4)" gradientUnits="userSpaceOnUse"><stop offset="0.28" stop-color="#333332"/><stop offset="1" stop-color="#1c1d1b"/></linearGradient><linearGradient id="linear-gradient-2" x1="63.99" y1="495.77" x2="294.61" y2="695.23" gradientTransform="matrix(1, 0, 0, -1, 0, 720.4)" gradientUnits="userSpaceOnUse"><stop offset="0" stop-color="#141415"/><stop offset="1" stop-color="#141415"/></linearGradient><linearGradient id="linear-gradient-3" x1="615.88" y1="510.96" x2="341.37" y2="4.33" xlink:href="#linear-gradient-2"/><linearGradient id="linear-gradient-4" x1="290.45" y1="676.17" x2="611.18" y2="397" gradientTransform="matrix(1, 0, 0, -1, 0, 720.4)" gradientUnits="userSpaceOnUse"><stop offset="0" stop-color="#1d1d1d"/><stop offset="1" stop-color="#1d1d1d"/></linearGradient><linearGradient id="linear-gradient-5" x1="194.24" y1="576.18" x2="505.53" y2="389.62" gradientTransform="matrix(1, 0, 0, -1, 0, 720.4)" gradientUnits="userSpaceOnUse"><stop offset="0" stop-color="#1e1d1b"/><stop offset="1" stop-color="#3c3c3a"/></linearGradient><linearGradient id="linear-gradient-6" x1="107.63" y1="422.19" x2="444.5" y2="220.71" xlink:href="#linear-gradient-4"/></defs><g id="Ebene_2" data-name="Ebene 2"><g id="Layer_1" data-name="Layer 1"><path class="cls-1" d="M1012.2,154.8h2.7l.7,2.6a6.15,6.15,0,0,1,2-1.6,10.2,10.2,0,0,1,2.2-.9,17.66,17.66,0,0,1,2-.4c.6,0,1.1-.1,1.5-.1a10.3,10.3,0,0,1,3.5.6,9.23,9.23,0,0,1,3,1.8,8.52,8.52,0,0,1,2.1,3.3,15.16,15.16,0,0,1,.8,5.1v9a15.16,15.16,0,0,1-.8,5.1,8.06,8.06,0,0,1-5.1,5.1,10.3,10.3,0,0,1-3.5.6,8.64,8.64,0,0,1-1.5-.1,7.87,7.87,0,0,1-2-.4,10.2,10.2,0,0,1-2.2-.9,7.42,7.42,0,0,1-2-1.6v12.7h-3.4V154.8Zm3.3,20.2a6.29,6.29,0,0,0,2,5.1,7.22,7.22,0,0,0,5.1,1.8,6.9,6.9,0,0,0,2.5-.4,4.65,4.65,0,0,0,2.1-1.3,7,7,0,0,0,1.5-2.4,10.65,10.65,0,0,0,.6-3.9v-8.4a11,11,0,0,0-.6-3.9,7,7,0,0,0-1.5-2.4,5.71,5.71,0,0,0-2.1-1.3,10.05,10.05,0,0,0-2.5-.4,7.22,7.22,0,0,0-5.1,1.8,6.62,6.62,0,0,0-2,5.1Z"/><path class="cls-1" d="M1049.9,154.4a12.31,12.31,0,0,1,4.4.8,8.55,8.55,0,0,1,5.1,5.2,12.09,12.09,0,0,1,.6,3.8v11a12.09,12.09,0,0,1-.6,3.8,7.67,7.67,0,0,1-1.9,3.1,8.12,8.12,0,0,1-3.2,2.1,11.91,11.91,0,0,1-4.4.8,12.31,12.31,0,0,1-4.4-.8,8.55,8.55,0,0,1-5.1-5.2,12.09,12.09,0,0,1-.6-3.8V164.3a12.09,12.09,0,0,1,.6-3.8,7.67,7.67,0,0,1,1.9-3.1,8.12,8.12,0,0,1,3.2-2.1A10.17,10.17,0,0,1,1049.9,154.4Zm0,27.5a5.8,5.8,0,0,0,4.8-2,6.89,6.89,0,0,0,1.8-4.9V164.3a6.89,6.89,0,0,0-1.8-4.9,6.25,6.25,0,0,0-4.8-2,5.8,5.8,0,0,0-4.8,2,6.89,6.89,0,0,0-1.8,4.9V175a6.89,6.89,0,0,0,1.8,4.9A6,6,0,0,0,1049.9,181.9Z"/><path class="cls-1" d="M1088.2,181.9l5.1-27.1h3.4l-6,29.9h-4.8l-5.1-22.4-5.1,22.4h-4.8l-6-29.9h3.4l5.1,27.1,5.8-27.1h3.1Z"/><path class="cls-1" d="M1121.1,177.4a6.08,6.08,0,0,1-.6,2.5,8.32,8.32,0,0,1-1.8,2.5,9.07,9.07,0,0,1-3,1.9,10.88,10.88,0,0,1-4.2.7,12.31,12.31,0,0,1-4.4-.8,8.55,8.55,0,0,1-5.1-5.2,12.09,12.09,0,0,1-.6-3.8v-11a10.7,10.7,0,0,1,.7-4.1,8.56,8.56,0,0,1,5.3-5,12.9,12.9,0,0,1,4-.6,10.45,10.45,0,0,1,7.3,2.5c1.9,1.7,2.8,4.1,2.8,7.2v6.6h-16.8V175a6.89,6.89,0,0,0,1.8,4.9,6.25,6.25,0,0,0,4.8,2,6.49,6.49,0,0,0,4.3-1.3,7.54,7.54,0,0,0,2.4-3.2Zm-2.7-13.1a6.65,6.65,0,0,0-1.8-4.8,6.41,6.41,0,0,0-4.9-1.9,6.18,6.18,0,0,0-4.8,1.9,6.81,6.81,0,0,0-1.8,4.8v3.4h13.4v-3.4Z"/><path class="cls-1" d="M1142.9,158.1a9.83,9.83,0,0,0-3.3,1.1,13.08,13.08,0,0,0-3.3,2.5,14.55,14.55,0,0,0-2.6,4,13.5,13.5,0,0,0-1,5.5v13.5h-3.4V154.8h2.7l.7,6.4a20.29,20.29,0,0,1,2.6-3.1,16.19,16.19,0,0,1,2.8-2,11.2,11.2,0,0,1,2.6-1.1,9.58,9.58,0,0,1,2.2-.3h.6v3.2Z"/><path class="cls-1" d="M1167,177.4a6.08,6.08,0,0,1-.6,2.5,8.32,8.32,0,0,1-1.8,2.5,9.07,9.07,0,0,1-3,1.9,10.88,10.88,0,0,1-4.2.7,12.31,12.31,0,0,1-4.4-.8,8.55,8.55,0,0,1-5.1-5.2,12.09,12.09,0,0,1-.6-3.8v-11a10.7,10.7,0,0,1,.7-4.1,8.56,8.56,0,0,1,5.3-5,12.9,12.9,0,0,1,4-.6,10.45,10.45,0,0,1,7.3,2.5c1.9,1.7,2.8,4.1,2.8,7.2v6.6h-16.8V175a6.89,6.89,0,0,0,1.8,4.9,6.25,6.25,0,0,0,4.8,2,6.49,6.49,0,0,0,4.3-1.3,7.54,7.54,0,0,0,2.4-3.2Zm-2.7-13.1a6.65,6.65,0,0,0-1.8-4.8,6.41,6.41,0,0,0-4.9-1.9,6.18,6.18,0,0,0-4.8,1.9,6.81,6.81,0,0,0-1.8,4.8v3.4h13.4v-3.4Z"/><path class="cls-1" d="M1195,184.7h-2.7l-.6-2.6a6.15,6.15,0,0,1-2,1.6,10.2,10.2,0,0,1-2.2.9,17.66,17.66,0,0,1-2,.4c-.6,0-1.1.1-1.5.1a10.3,10.3,0,0,1-3.5-.6,9.23,9.23,0,0,1-3-1.8,8.52,8.52,0,0,1-2.1-3.3,15.16,15.16,0,0,1-.8-5.1v-9a15.16,15.16,0,0,1,.8-5.1,8.06,8.06,0,0,1,5.1-5.1,10.3,10.3,0,0,1,3.5-.6,8.64,8.64,0,0,1,1.5.1,7.87,7.87,0,0,1,2,.4,10.2,10.2,0,0,1,2.2.9,7.42,7.42,0,0,1,2,1.6V144.6h3.4v40.1Zm-3.4-20.2a6.62,6.62,0,0,0-2-5.1,7.22,7.22,0,0,0-5.1-1.8,7.66,7.66,0,0,0-2.5.4,4.65,4.65,0,0,0-2.1,1.3,7,7,0,0,0-1.5,2.4,10.65,10.65,0,0,0-.6,3.9V174a10.65,10.65,0,0,0,.6,3.9,7,7,0,0,0,1.5,2.4,5.71,5.71,0,0,0,2.1,1.3,10.05,10.05,0,0,0,2.5.4,7.22,7.22,0,0,0,5.1-1.8,6.62,6.62,0,0,0,2-5.1Z"/><path class="cls-1" d="M1214.8,144.5h3.4v12.9a6.15,6.15,0,0,1,2-1.6,10.2,10.2,0,0,1,2.2-.9,17.66,17.66,0,0,1,2-.4c.6,0,1.1-.1,1.5-.1a10.3,10.3,0,0,1,3.5.6,9.23,9.23,0,0,1,3,1.8,8.52,8.52,0,0,1,2.1,3.3,15.16,15.16,0,0,1,.8,5.1v9a15.16,15.16,0,0,1-.8,5.1,8.06,8.06,0,0,1-5.1,5.1,10.3,10.3,0,0,1-3.5.6,8.64,8.64,0,0,1-1.5-.1,7.87,7.87,0,0,1-2-.4,10.2,10.2,0,0,1-2.2-.9,7.42,7.42,0,0,1-2-1.6l-.7,2.6h-2.7V144.5Zm3.4,30.5a6.29,6.29,0,0,0,2,5.1,7.22,7.22,0,0,0,5.1,1.8,6.9,6.9,0,0,0,2.5-.4,4.65,4.65,0,0,0,2.1-1.3,7,7,0,0,0,1.5-2.4,10.65,10.65,0,0,0,.6-3.9v-8.4a11,11,0,0,0-.6-3.9,7,7,0,0,0-1.5-2.4,5.71,5.71,0,0,0-2.1-1.3,10.05,10.05,0,0,0-2.5-.4,7.22,7.22,0,0,0-5.1,1.8,6.62,6.62,0,0,0-2,5.1Z"/><path class="cls-1" d="M1249.8,186.7l-9.9-32h3.4l8.1,26.2,7.1-26.2h3.4l-10.9,40h-3.4Z"/><polygon class="cls-2" points="82.8 548.7 0 176.2 303.8 0 607.6 176.2 524.5 548.5 303.8 718.4 82.8 548.7"/><polygon points="106.1 533.8 29.5 189.1 303.8 30 578.1 189.1 501.2 533.6 303.8 685.6 106.1 533.8"/><polygon class="cls-3" points="28.3 188.6 94.3 265.3 327.5 626.9 303.8 686.9 105.2 534.4 28.3 188.6"/><polygon class="cls-4" points="303.8 28.9 94.3 265.3 28.3 188.6 303.8 28.9"/><polygon class="cls-5" points="327.5 626.9 507.7 340.3 579.2 188.6 502.1 534.2 303.8 686.9 327.5 626.9"/><polygon class="cls-6" points="507.7 340.3 303.8 28.9 579.2 188.6 507.7 340.3"/><polygon class="cls-7" points="94.3 265.3 507.7 340.3 303.8 28.9 94.3 265.3"/><polygon class="cls-8" points="327.5 626.9 94.3 265.3 507.7 340.3 327.5 626.9"/><path class="cls-2" d="M176.6,529c-15.2,0-28.2-4.5-37.6-13.3-7.5-7.1-16.2-19.8-16.2-42.5V352.6c0-22.7,8.8-35.4,16.2-42.5,9.4-8.8,22.4-13.3,37.6-13.3s28.2,4.5,37.6,13.3c7.5,7.1,16.2,19.8,16.2,42.5V473.2c0,22.7-8.8,35.4-16.2,42.5C204.8,524.5,191.8,529,176.6,529Zm0-196.5c-4.2,0-9.7.6-13.3,3.9-3.9,3.6-4.9,11-4.9,16.2V473.2c0,5.2,1,12.7,4.9,16.2,3.6,3.2,9.1,3.9,13.3,3.9s10.1-.6,13.3-3.9c4.2-3.6,4.9-11,4.9-16.2V352.6c0-5.2-.6-12.6-4.9-16.2C186.6,333.1,180.8,332.5,176.6,332.5Z"/><path class="cls-2" d="M363.1,526.4H342.3L287.8,411.3V526.4H252.1v-227h20.8l54.5,114.8V299.4h35.7Z"/><path class="cls-2" d="M468.5,335.1H423.4v57.1h50.3l-16.2,35.7H423.4v62.9H485l-16.5,35.7H387.7v-227H485Z"/><path class="cls-1" d="M256.9,247.7a21,21,0,0,0,21,21h51.3v-21H280.9V232.6H326V213.9H280.9V199.3h48.3v-21H277.9a21,21,0,0,0-21,21Z"/><path class="cls-1" d="M409.8,241.3h0a27.44,27.44,0,0,0-27.4-27.4H360.6V199.3h44.8v-21H363.8a27.06,27.06,0,0,0-27.1,27.1h0a27.06,27.06,0,0,0,27.1,27.1h22v15.1H341v21h41.4A27.17,27.17,0,0,0,409.8,241.3Z"/><path class="cls-1" d="M439.5,268.7H485v-21H442.5V178.4h-24v69.3A20.93,20.93,0,0,0,439.5,268.7Z"/><circle class="cls-1" cx="177.91" cy="223.71" r="55.2"/><path d="M180,178.5l-42,66.6a44.36,44.36,0,0,0,4.9,7.3l63.7-63.7A45.21,45.21,0,0,0,180,178.5Z"/><path d="M213,195.2l-63.7,63.7a51.7,51.7,0,0,0,7.3,4.9L223,222A44.1,44.1,0,0,0,213,195.2Z"/><path d="M222.1,233.3l-54.7,34.4C196.3,274.2,218,253.8,222.1,233.3Z"/><rect class="cls-9" x="1011.9" y="255.9" width="39.7" height="39.7"/><path class="cls-1" d="M1050.6,462.5V319.7H1013V462.5ZM1300,464V429a83.9,83.9,0,0,1-13.6-.9c-3.9-.6-6.9-1.9-8.8-3.9a15.32,15.32,0,0,1-3.9-8.5,85.75,85.75,0,0,1-.9-13.8v-50H1300V319.7h-27.2V264h-37.6V402.1c0,11.6,1,21.6,3,29.5s5.3,14.2,10,18.9,10.9,8.2,18.4,10.3,17.2,3.2,28.7,3.2Zm215.7-1.5V253h-37.6V462.5ZM1198.9,333.7c-10.4-11.3-25.1-17-43.8-17a54.63,54.63,0,0,0-24.7,5.5,53.2,53.2,0,0,0-18.7,15.2l-2,2.6V319.5h-37.1V462.3H1110V388.9c.4-13.3,3.7-23.3,9.9-29.6a32.68,32.68,0,0,1,23.9-10.2q16.35,0,24.6,9.9c5.4,6.4,8.1,15.6,8.2,27.4h0v.4h0v75.5h38V381.2C1214.6,361.1,1209.3,345,1198.9,333.7Zm259.5,57.1a77,77,0,0,0-5.4-28.9,75.62,75.62,0,0,0-15.1-23.6,67.74,67.74,0,0,0-23.3-15.8,76.6,76.6,0,0,0-29.9-5.7,72.64,72.64,0,0,0-29,5.9,74.36,74.36,0,0,0-23.6,15.9,76.05,76.05,0,0,0-15.9,23.6,72.64,72.64,0,0,0-5.9,29,75.67,75.67,0,0,0,5.6,29,74.16,74.16,0,0,0,15.4,23.6,73,73,0,0,0,23.9,15.9,78.72,78.72,0,0,0,30.6,5.9c31.8,0,51.7-14.5,63.5-28L1422.2,417c-5.7,6.8-19.3,16-36.2,16-10.6,0-19.4-2.5-26-7.3a36.34,36.34,0,0,1-13.6-19.8l-.4-1.3h112.2V390.8Zm-111.9-13.1c0-10.5,12-28.7,37.9-28.7s37.9,18.2,37.9,28.7Z"/><path class="cls-1" d="M1558.5,444.5a12.3,12.3,0,0,0-3-4.4,13.25,13.25,0,0,0-4.4-3,13.8,13.8,0,0,0-10.8,0,12.3,12.3,0,0,0-4.4,3,13.25,13.25,0,0,0-3,4.4,13.8,13.8,0,0,0,0,10.8,12.3,12.3,0,0,0,3,4.4,13.25,13.25,0,0,0,4.4,3,13.8,13.8,0,0,0,10.8,0,12.3,12.3,0,0,0,4.4-3,13.25,13.25,0,0,0,3-4.4,14.08,14.08,0,0,0,1.1-5.4A12.44,12.44,0,0,0,1558.5,444.5Zm-2.2,9.9a11.52,11.52,0,0,1-2.5,3.7,12.07,12.07,0,0,1-3.7,2.5,11.7,11.7,0,0,1-9,0,11.52,11.52,0,0,1-3.7-2.5,12.07,12.07,0,0,1-2.5-3.7,11.7,11.7,0,0,1,0-9,11.52,11.52,0,0,1,2.5-3.7,12.07,12.07,0,0,1,3.7-2.5,11.7,11.7,0,0,1,9,0,11.52,11.52,0,0,1,3.7,2.5,12.07,12.07,0,0,1,2.5,3.7,11.7,11.7,0,0,1,0,9Zm-8-3.4a4.22,4.22,0,0,0,2.7-1.2,4.17,4.17,0,0,0,1.1-3.1,4.9,4.9,0,0,0-1.4-3.6,6.31,6.31,0,0,0-4.3-1.2h-6.1v15.9h2.9v-6.5h2.1l4,6.5h3.1Zm-1.5-2.3c-.5,0-.9.1-1.3.1h-2.1v-4.5h3.4a2.38,2.38,0,0,1,1.2.3,1.6,1.6,0,0,1,.9.7,2.55,2.55,0,0,1,0,2.4,2.18,2.18,0,0,1-.9.7A2.66,2.66,0,0,1,1546.8,448.7Z"/><rect class="cls-1" x="806.7" y="57.36" width="6" height="603.67" rx="3"/></g></g></svg>