<?xml version="1.0" encoding="UTF-8"?>
<svg width="250px" height="100px" viewBox="0 0 250 100" version="1.1" xmlns="http://www.w3.org/2000/svg" xmlns:xlink="http://www.w3.org/1999/xlink">
    <title>DHL_Logo</title>
    <g id="Page-1" stroke="none" stroke-width="1" fill="none" fill-rule="evenodd">
        <g id="official-partner-dhl" transform="translate(-25.000000, 0.000000)">
            <g id="DHL_Logo" transform="translate(25.000000, 0.000000)">
                <polygon id="Path" fill="#FECC00" points="250 0 250 100 0 100 0 0 250 0"></polygon>
                <path d="M80.6054692,45.0133982 C79.5129959,46.4779512 77.6850946,49.0240203 76.5727064,50.5111049 C76.0079773,51.2673212 74.9880511,52.6403396 78.3693129,52.6403396 C81.9468785,52.6403396 96.1717914,52.6403396 96.1717914,52.6403396 C96.1717914,52.6403396 99.0409564,48.7761728 101.446389,45.5442987 C104.718119,41.1478233 101.729465,32 90.032319,32 C79.5627831,32 43.9663609,32 43.9663609,32 L35.9790723,42.7433411 C35.9790723,42.7433411 77.3863714,42.7433411 79.5115734,42.7433411 C81.7093224,42.7433411 81.6794501,43.5713768 80.6054692,45.0133982 Z M67.5270842,55.2906172 C64.1458224,55.2906172 65.1657487,53.9147823 65.7304777,53.158566 C66.8428659,51.6714815 68.7006396,49.1521687 69.7931129,47.6876157 C70.8685163,46.2455943 70.8969661,45.4175585 68.6963721,45.4175585 C66.5725926,45.4175585 48.7871839,45.4175585 48.7871839,45.4175585 L32.7457496,67 C32.7457496,67 61.3961468,67 71.8656827,67 C84.7861711,67 91.9797096,58.299992 94.1973735,55.2920254 C94.1973735,55.2906172 71.1032273,55.2906172 67.5270842,55.2906172 Z M92.9754535,67 L115.924506,67 L124.624462,55.289209 L101.678255,55.2920254 C101.671143,55.2906172 92.9754535,67 92.9754535,67 Z M152.186654,32 L143.384277,43.836123 L133.14234,43.836123 L141.940449,32 L118.998509,32 L103.649828,52.6403396 L159.781335,52.6403396 L175.125748,32 L152.186654,32 Z M126.166443,67 L149.10696,67 L157.811184,55.2920254 L134.870667,55.2920254 C134.862132,55.2906172 126.166443,67 126.166443,67 Z M0,59.909592 L0,62.3965157 L31.9605344,62.3965157 L33.8069281,59.909592 L0,59.909592 Z M37.2422446,55.2906172 L0,55.2906172 L0,57.7747244 L35.3915834,57.7747244 L37.2422446,55.2906172 Z M0,67 L28.5365979,67 L30.3744566,64.5271586 L0,64.5271586 L0,67 Z M216.321096,62.3951074 L250,62.3951074 L250,59.9081838 L218.170335,59.9081838 L216.321096,62.3951074 Z M212.900005,67 L250,67 L250,64.5271586 L214.736441,64.5271586 L212.900005,67 Z M221.599961,55.2906172 L219.75499,57.7775408 L250,57.7775408 L250,55.2906172 L221.599961,55.2906172 L221.599961,55.2906172 Z M191.551255,52.6403396 L206.898514,32 L182.60094,32 C182.592405,32 167.242301,52.6403396 167.242301,52.6403396 L191.551255,52.6403396 Z M165.274996,55.2906172 C165.274996,55.2906172 163.597879,57.5592661 162.782791,58.652048 C159.902246,62.5049489 162.449928,67 171.852596,67 C182.714739,67 208.696543,67 208.696543,67 L217.400767,55.2920254 L165.274996,55.2920254 L165.274996,55.2906172 Z" id="Shape" fill="#D50029" fill-rule="nonzero"></path>
            </g>
        </g>
    </g>
</svg>